<svg width="2611" height="1206" viewBox="0 0 2611 1206" fill="none" xmlns="http://www.w3.org/2000/svg">
<g opacity="0.5">
<g style="mix-blend-mode:soft-light" opacity="0.7">
<path d="M76.0965 17.561H17.5605V76.0969M76.0965 17.561V76.0969M76.0965 17.561H134.632M76.0965 76.0969H17.5605M76.0965 76.0969V134.633M76.0965 76.0969H134.632M17.5605 76.0969V134.633M76.0965 134.633H17.5605M76.0965 134.633V193.169M76.0965 134.633H134.632M17.5605 134.633V193.169M76.0965 193.169H17.5605M76.0965 193.169V251.705M76.0965 193.169H134.632M17.5605 193.169V251.705M76.0965 251.705H17.5605M76.0965 251.705V310.241M76.0965 251.705H134.632M17.5605 251.705V310.241M76.0965 310.241H17.5605M76.0965 310.241V368.777M76.0965 310.241H134.632M17.5605 310.241V368.777M76.0965 368.777H17.5605M76.0965 368.777V427.313M76.0965 368.777H134.632M17.5605 368.777V427.313M76.0965 427.313H17.5605M76.0965 427.313V485.849M76.0965 427.313H134.632M17.5605 427.313V485.849M76.0965 485.849H17.5605M76.0965 485.849V544.384M76.0965 485.849H134.632M17.5605 485.849V544.384M76.0965 544.384H17.5605M76.0965 544.384V602.92M76.0965 544.384H134.632M17.5605 544.384V602.92M76.0965 602.92H17.5605M76.0965 602.92V661.456M76.0965 602.92H134.632M17.5605 602.92V661.456M76.0965 661.456H17.5605M76.0965 661.456V719.992M76.0965 661.456H134.632M17.5605 661.456V719.992M76.0965 719.992H17.5605M76.0965 719.992V778.528M76.0965 719.992H134.632M17.5605 719.992V778.528M76.0965 778.528H17.5605M76.0965 778.528V837.064M76.0965 778.528H134.632M17.5605 778.528V837.064M76.0965 837.064H17.5605M76.0965 837.064V895.6M76.0965 837.064H134.632M17.5605 837.064V895.6M76.0965 895.6H17.5605M76.0965 895.6V954.136M76.0965 895.6H134.632M17.5605 895.6V954.136M76.0965 954.136H17.5605M76.0965 954.136V1012.67M76.0965 954.136H134.632M17.5605 954.136V1012.67M76.0965 1012.67H17.5605M76.0965 1012.67V1071.21M76.0965 1012.67H134.632M17.5605 1012.67V1071.21M76.0965 1071.21H17.5605M76.0965 1071.21V1129.74M76.0965 1071.21H134.632M17.5605 1071.21V1129.74M76.0965 1129.74H17.5605M76.0965 1129.74V1188.28M76.0965 1129.74H134.632M17.5605 1129.74V1188.28H76.0965M76.0965 1188.28H134.632M134.632 17.561V76.0969M134.632 17.561H193.168M134.632 76.0969V134.633M134.632 76.0969H193.168M134.632 134.633V193.169M134.632 134.633H193.168M134.632 193.169V251.705M134.632 193.169H193.168M134.632 251.705V310.241M134.632 251.705H193.168M134.632 310.241V368.777M134.632 310.241H193.168M134.632 368.777V427.313M134.632 368.777H193.168M134.632 427.313V485.849M134.632 427.313H193.168M134.632 485.849V544.384M134.632 485.849H193.168M134.632 544.384V602.92M134.632 544.384H193.168M134.632 602.92V661.456M134.632 602.92H193.168M134.632 661.456V719.992M134.632 661.456H193.168M134.632 719.992V778.528M134.632 719.992H193.168M134.632 778.528V837.064M134.632 778.528H193.168M134.632 837.064V895.6M134.632 837.064H193.168M134.632 895.6V954.136M134.632 895.6H193.168M134.632 954.136V1012.67M134.632 954.136H193.168M134.632 1012.67V1071.21M134.632 1012.67H193.168M134.632 1071.21V1129.74M134.632 1071.21H193.168M134.632 1129.74V1188.28M134.632 1129.74H193.168M134.632 1188.28H193.168M193.168 17.561V76.0969M193.168 17.561H251.704M193.168 76.0969V134.633M193.168 76.0969H251.704M193.168 134.633V193.169M193.168 134.633H251.704M193.168 193.169V251.705M193.168 193.169H251.704M193.168 251.705V310.241M193.168 251.705H251.704M193.168 310.241V368.777M193.168 310.241H251.704M193.168 368.777V427.313M193.168 368.777H251.704M193.168 427.313V485.849M193.168 427.313H251.704M193.168 485.849V544.384M193.168 485.849H251.704M193.168 544.384V602.92M193.168 544.384H251.704M193.168 602.92V661.456M193.168 602.92H251.704M193.168 661.456V719.992M193.168 661.456H251.704M193.168 719.992V778.528M193.168 719.992H251.704M193.168 778.528V837.064M193.168 778.528H251.704M193.168 837.064V895.6M193.168 837.064H251.704M193.168 895.6V954.136M193.168 895.6H251.704M193.168 954.136V1012.67M193.168 954.136H251.704M193.168 1012.67V1071.21M193.168 1012.67H251.704M193.168 1071.21V1129.74M193.168 1071.21H251.704M193.168 1129.74V1188.28M193.168 1129.74H251.704M193.168 1188.28H251.704M251.704 17.561V76.0969M251.704 17.561H310.24M251.704 76.0969V134.633M251.704 76.0969H310.24M251.704 134.633V193.169M251.704 134.633H310.24M251.704 193.169V251.705M251.704 193.169H310.24M251.704 251.705V310.241M251.704 251.705H310.24M251.704 310.241V368.777M251.704 310.241H310.24M251.704 368.777V427.313M251.704 368.777H310.24M251.704 427.313V485.849M251.704 427.313H310.24M251.704 485.849V544.384M251.704 485.849H310.24M251.704 544.384V602.92M251.704 544.384H310.24M251.704 602.92V661.456M251.704 602.92H310.24M251.704 661.456V719.992M251.704 661.456H310.24M251.704 719.992V778.528M251.704 719.992H310.24M251.704 778.528V837.064M251.704 778.528H310.24M251.704 837.064V895.6M251.704 837.064H310.24M251.704 895.6V954.136M251.704 895.6H310.24M251.704 954.136V1012.67M251.704 954.136H310.24M251.704 1012.67V1071.21M251.704 1012.67H310.24M251.704 1071.21V1129.74M251.704 1071.21H310.24M251.704 1129.74V1188.28M251.704 1129.74H310.24M251.704 1188.28H310.24M310.24 17.561V76.0969M310.24 17.561H368.776M310.24 76.0969V134.633M310.24 76.0969H368.776M310.24 134.633V193.169M310.24 134.633H368.776M310.24 193.169V251.705M310.24 193.169H368.776M310.24 251.705V310.241M310.24 251.705H368.776M310.24 310.241V368.777M310.24 310.241H368.776M310.24 368.777V427.313M310.24 368.777H368.776M310.24 427.313V485.849M310.24 427.313H368.776M310.24 485.849V544.384M310.24 485.849H368.776M310.24 544.384V602.92M310.24 544.384H368.776M310.24 602.92V661.456M310.24 602.92H368.776M310.24 661.456V719.992M310.24 661.456H368.776M310.24 719.992V778.528M310.24 719.992H368.776M310.24 778.528V837.064M310.24 778.528H368.776M310.24 837.064V895.6M310.24 837.064H368.776M310.24 895.6V954.136M310.24 895.6H368.776M310.24 954.136V1012.67M310.24 954.136H368.776M310.24 1012.67V1071.21M310.24 1012.67H368.776M310.24 1071.21V1129.74M310.24 1071.21H368.776M310.24 1129.74V1188.28M310.24 1129.74H368.776M310.24 1188.28H368.776M368.776 17.561V76.0969M368.776 17.561H427.312M368.776 76.0969V134.633M368.776 76.0969H427.312M368.776 134.633V193.169M368.776 134.633H427.312M368.776 193.169V251.705M368.776 193.169H427.312M368.776 251.705V310.241M368.776 251.705H427.312M368.776 310.241V368.777M368.776 310.241H427.312M368.776 368.777V427.313M368.776 368.777H427.312M368.776 427.313V485.849M368.776 427.313H427.312M368.776 485.849V544.384M368.776 485.849H427.312M368.776 544.384V602.92M368.776 544.384H427.312M368.776 602.92V661.456M368.776 602.92H427.312M368.776 661.456V719.992M368.776 661.456H427.312M368.776 719.992V778.528M368.776 719.992H427.312M368.776 778.528V837.064M368.776 778.528H427.312M368.776 837.064V895.6M368.776 837.064H427.312M368.776 895.6V954.136M368.776 895.6H427.312M368.776 954.136V1012.67M368.776 954.136H427.312M368.776 1012.67V1071.21M368.776 1012.67H427.312M368.776 1071.21V1129.74M368.776 1071.21H427.312M368.776 1129.74V1188.28M368.776 1129.74H427.312M368.776 1188.28H427.312M427.312 17.561V76.0969M427.312 17.561H485.848M427.312 76.0969V134.633M427.312 76.0969H485.848M427.312 134.633V193.169M427.312 134.633H485.848M427.312 193.169V251.705M427.312 193.169H485.848M427.312 251.705V310.241M427.312 251.705H485.848M427.312 310.241V368.777M427.312 310.241H485.848M427.312 368.777V427.313M427.312 368.777H485.848M427.312 427.313V485.849M427.312 427.313H485.848M427.312 485.849V544.384M427.312 485.849H485.848M427.312 544.384V602.92M427.312 544.384H485.848M427.312 602.92V661.456M427.312 602.92H485.848M427.312 661.456V719.992M427.312 661.456H485.848M427.312 719.992V778.528M427.312 719.992H485.848M427.312 778.528V837.064M427.312 778.528H485.848M427.312 837.064V895.6M427.312 837.064H485.848M427.312 895.6V954.136M427.312 895.6H485.848M427.312 954.136V1012.67M427.312 954.136H485.848M427.312 1012.67V1071.21M427.312 1012.67H485.848M427.312 1071.21V1129.74M427.312 1071.21H485.848M427.312 1129.74V1188.28M427.312 1129.74H485.848M427.312 1188.28H485.848M485.848 17.561V76.0969M485.848 17.561H544.384M485.848 76.0969V134.633M485.848 76.0969H544.384M485.848 134.633V193.169M485.848 134.633H544.384M485.848 193.169V251.705M485.848 193.169H544.384M485.848 251.705V310.241M485.848 251.705H544.384M485.848 310.241V368.777M485.848 310.241H544.384M485.848 368.777V427.313M485.848 368.777H544.384M485.848 427.313V485.849M485.848 427.313H544.384M485.848 485.849V544.384M485.848 485.849H544.384M485.848 544.384V602.92M485.848 544.384H544.384M485.848 602.92V661.456M485.848 602.92H544.384M485.848 661.456V719.992M485.848 661.456H544.384M485.848 719.992V778.528M485.848 719.992H544.384M485.848 778.528V837.064M485.848 778.528H544.384M485.848 837.064V895.6M485.848 837.064H544.384M485.848 895.6V954.136M485.848 895.6H544.384M485.848 954.136V1012.67M485.848 954.136H544.384M485.848 1012.67V1071.21M485.848 1012.67H544.384M485.848 1071.21V1129.74M485.848 1071.21H544.384M485.848 1129.74V1188.28M485.848 1129.74H544.384M485.848 1188.28H544.384M544.384 17.561V76.0969M544.384 17.561H602.92M544.384 76.0969V134.633M544.384 76.0969H602.92M544.384 134.633V193.169M544.384 134.633H602.92M544.384 193.169V251.705M544.384 193.169H602.92M544.384 251.705V310.241M544.384 251.705H602.92M544.384 310.241V368.777M544.384 310.241H602.92M544.384 368.777V427.313M544.384 368.777H602.92M544.384 427.313V485.849M544.384 427.313H602.92M544.384 485.849V544.384M544.384 485.849H602.92M544.384 544.384V602.92M544.384 544.384H602.92M544.384 602.92V661.456M544.384 602.92H602.92M544.384 661.456V719.992M544.384 661.456H602.92M544.384 719.992V778.528M544.384 719.992H602.92M544.384 778.528V837.064M544.384 778.528H602.92M544.384 837.064V895.6M544.384 837.064H602.92M544.384 895.6V954.136M544.384 895.6H602.92M544.384 954.136V1012.67M544.384 954.136H602.92M544.384 1012.67V1071.21M544.384 1012.67H602.92M544.384 1071.21V1129.74M544.384 1071.21H602.92M544.384 1129.74V1188.28M544.384 1129.74H602.92M544.384 1188.28H602.92M602.92 17.561V76.0969M602.92 17.561H661.456M602.92 76.0969V134.633M602.92 76.0969H661.456M602.92 134.633V193.169M602.92 134.633H661.456M602.92 193.169V251.705M602.92 193.169H661.456M602.92 251.705V310.241M602.92 251.705H661.456M602.92 310.241V368.777M602.92 310.241H661.456M602.92 368.777V427.313M602.92 368.777H661.456M602.92 427.313V485.849M602.92 427.313H661.456M602.92 485.849V544.384M602.92 485.849H661.456M602.92 544.384V602.92M602.92 544.384H661.456M602.92 602.92V661.456M602.92 602.92H661.456M602.92 661.456V719.992M602.92 661.456H661.456M602.92 719.992V778.528M602.92 719.992H661.456M602.92 778.528V837.064M602.92 778.528H661.456M602.92 837.064V895.6M602.92 837.064H661.456M602.92 895.6V954.136M602.92 895.6H661.456M602.92 954.136V1012.67M602.92 954.136H661.456M602.92 1012.67V1071.21M602.92 1012.67H661.456M602.92 1071.21V1129.74M602.92 1071.21H661.456M602.92 1129.74V1188.28M602.92 1129.74H661.456M602.92 1188.28H661.456M661.456 17.561V76.0969M661.456 17.561H719.992M661.456 76.0969V134.633M661.456 76.0969H719.992M661.456 134.633V193.169M661.456 134.633H719.992M661.456 193.169V251.705M661.456 193.169H719.992M661.456 251.705V310.241M661.456 251.705H719.992M661.456 310.241V368.777M661.456 310.241H719.992M661.456 368.777V427.313M661.456 368.777H719.992M661.456 427.313V485.849M661.456 427.313H719.992M661.456 485.849V544.384M661.456 485.849H719.992M661.456 544.384V602.92M661.456 544.384H719.992M661.456 602.92V661.456M661.456 602.92H719.992M661.456 661.456V719.992M661.456 661.456H719.992M661.456 719.992V778.528M661.456 719.992H719.992M661.456 778.528V837.064M661.456 778.528H719.992M661.456 837.064V895.6M661.456 837.064H719.992M661.456 895.6V954.136M661.456 895.6H719.992M661.456 954.136V1012.67M661.456 954.136H719.992M661.456 1012.67V1071.21M661.456 1012.67H719.992M661.456 1071.21V1129.74M661.456 1071.21H719.992M661.456 1129.74V1188.28M661.456 1129.74H719.992M661.456 1188.28H719.992M719.992 17.561V76.0969M719.992 17.561H778.528M719.992 76.0969V134.633M719.992 76.0969H778.528M719.992 134.633V193.169M719.992 134.633H778.528M719.992 193.169V251.705M719.992 193.169H778.528M719.992 251.705V310.241M719.992 251.705H778.528M719.992 310.241V368.777M719.992 310.241H778.528M719.992 368.777V427.313M719.992 368.777H778.528M719.992 427.313V485.849M719.992 427.313H778.528M719.992 485.849V544.384M719.992 485.849H778.528M719.992 544.384V602.92M719.992 544.384H778.528M719.992 602.92V661.456M719.992 602.92H778.528M719.992 661.456V719.992M719.992 661.456H778.528M719.992 719.992V778.528M719.992 719.992H778.528M719.992 778.528V837.064M719.992 778.528H778.528M719.992 837.064V895.6M719.992 837.064H778.528M719.992 895.6V954.136M719.992 895.6H778.528M719.992 954.136V1012.67M719.992 954.136H778.528M719.992 1012.67V1071.21M719.992 1012.67H778.528M719.992 1071.21V1129.74M719.992 1071.21H778.528M719.992 1129.74V1188.28M719.992 1129.74H778.528M719.992 1188.28H778.528M778.528 17.561V76.0969M778.528 17.561H837.064M778.528 76.0969V134.633M778.528 76.0969H837.064M778.528 134.633V193.169M778.528 134.633H837.064M778.528 193.169V251.705M778.528 193.169H837.064M778.528 251.705V310.241M778.528 251.705H837.064M778.528 310.241V368.777M778.528 310.241H837.064M778.528 368.777V427.313M778.528 368.777H837.064M778.528 427.313V485.849M778.528 427.313H837.064M778.528 485.849V544.384M778.528 485.849H837.064M778.528 544.384V602.92M778.528 544.384H837.064M778.528 602.92V661.456M778.528 602.92H837.064M778.528 661.456V719.992M778.528 661.456H837.064M778.528 719.992V778.528M778.528 719.992H837.064M778.528 778.528V837.064M778.528 778.528H837.064M778.528 837.064V895.6M778.528 837.064H837.064M778.528 895.6V954.136M778.528 895.6H837.064M778.528 954.136V1012.67M778.528 954.136H837.064M778.528 1012.67V1071.21M778.528 1012.67H837.064M778.528 1071.21V1129.74M778.528 1071.21H837.064M778.528 1129.74V1188.28M778.528 1129.74H837.064M778.528 1188.28H837.064M837.064 17.561V76.0969M837.064 17.561H895.6M837.064 76.0969V134.633M837.064 76.0969H895.6M837.064 134.633V193.169M837.064 134.633H895.6M837.064 193.169V251.705M837.064 193.169H895.6M837.064 251.705V310.241M837.064 251.705H895.6M837.064 310.241V368.777M837.064 310.241H895.6M837.064 368.777V427.313M837.064 368.777H895.6M837.064 427.313V485.849M837.064 427.313H895.6M837.064 485.849V544.384M837.064 485.849H895.6M837.064 544.384V602.92M837.064 544.384H895.6M837.064 602.92V661.456M837.064 602.92H895.6M837.064 661.456V719.992M837.064 661.456H895.6M837.064 719.992V778.528M837.064 719.992H895.6M837.064 778.528V837.064M837.064 778.528H895.6M837.064 837.064V895.6M837.064 837.064H895.6M837.064 895.6V954.136M837.064 895.6H895.6M837.064 954.136V1012.67M837.064 954.136H895.6M837.064 1012.67V1071.21M837.064 1012.67H895.6M837.064 1071.21V1129.74M837.064 1071.21H895.6M837.064 1129.74V1188.28M837.064 1129.74H895.6M837.064 1188.28H895.6M895.6 17.561V76.0969M895.6 17.561H954.136M895.6 76.0969V134.633M895.6 76.0969H954.136M895.6 134.633V193.169M895.6 134.633H954.136M895.6 193.169V251.705M895.6 193.169H954.136M895.6 251.705V310.241M895.6 251.705H954.136M895.6 310.241V368.777M895.6 310.241H954.136M895.6 368.777V427.313M895.6 368.777H954.136M895.6 427.313V485.849M895.6 427.313H954.136M895.6 485.849V544.384M895.6 485.849H954.136M895.6 544.384V602.92M895.6 544.384H954.136M895.6 602.92V661.456M895.6 602.92H954.136M895.6 661.456V719.992M895.6 661.456H954.136M895.6 719.992V778.528M895.6 719.992H954.136M895.6 778.528V837.064M895.6 778.528H954.136M895.6 837.064V895.6M895.6 837.064H954.136M895.6 895.6V954.136M895.6 895.6H954.136M895.6 954.136V1012.67M895.6 954.136H954.136M895.6 1012.67V1071.21M895.6 1012.67H954.136M895.6 1071.21V1129.74M895.6 1071.21H954.136M895.6 1129.74V1188.28M895.6 1129.74H954.136M895.6 1188.28H954.136M954.136 17.561V76.0969M954.136 17.561H1012.67M954.136 76.0969V134.633M954.136 76.0969H1012.67M954.136 134.633V193.169M954.136 134.633H1012.67M954.136 193.169V251.705M954.136 193.169H1012.67M954.136 251.705V310.241M954.136 251.705H1012.67M954.136 310.241V368.777M954.136 310.241H1012.67M954.136 368.777V427.313M954.136 368.777H1012.67M954.136 427.313V485.849M954.136 427.313H1012.67M954.136 485.849V544.384M954.136 485.849H1012.67M954.136 544.384V602.92M954.136 544.384H1012.67M954.136 602.92V661.456M954.136 602.92H1012.67M954.136 661.456V719.992M954.136 661.456H1012.67M954.136 719.992V778.528M954.136 719.992H1012.67M954.136 778.528V837.064M954.136 778.528H1012.67M954.136 837.064V895.6M954.136 837.064H1012.67M954.136 895.6V954.136M954.136 895.6H1012.67M954.136 954.136V1012.67M954.136 954.136H1012.67M954.136 1012.67V1071.21M954.136 1012.67H1012.67M954.136 1071.21V1129.74M954.136 1071.21H1012.67M954.136 1129.74V1188.28M954.136 1129.74H1012.67M954.136 1188.28H1012.67M1012.67 17.561V76.0969M1012.67 17.561H1071.21M1012.67 76.0969V134.633M1012.67 76.0969H1071.21M1012.67 134.633V193.169M1012.67 134.633H1071.21M1012.67 193.169V251.705M1012.67 193.169H1071.21M1012.67 251.705V310.241M1012.67 251.705H1071.21M1012.67 310.241V368.777M1012.67 310.241H1071.21M1012.67 368.777V427.313M1012.67 368.777H1071.21M1012.67 427.313V485.849M1012.67 427.313H1071.21M1012.67 485.849V544.384M1012.67 485.849H1071.21M1012.67 544.384V602.92M1012.67 544.384H1071.21M1012.67 602.92V661.456M1012.67 602.92H1071.21M1012.67 661.456V719.992M1012.67 661.456H1071.21M1012.67 719.992V778.528M1012.67 719.992H1071.21M1012.67 778.528V837.064M1012.67 778.528H1071.21M1012.67 837.064V895.6M1012.67 837.064H1071.21M1012.67 895.6V954.136M1012.67 895.6H1071.21M1012.67 954.136V1012.67M1012.67 954.136H1071.21M1012.67 1012.67V1071.21M1012.67 1012.67H1071.21M1012.67 1071.21V1129.74M1012.67 1071.21H1071.21M1012.67 1129.74V1188.28M1012.67 1129.74H1071.21M1012.67 1188.28H1071.21M1071.21 17.561V76.0969M1071.21 17.561H1129.74M1071.21 76.0969V134.633M1071.21 76.0969H1129.74M1071.21 134.633V193.169M1071.21 134.633H1129.74M1071.21 193.169V251.705M1071.21 193.169H1129.74M1071.21 251.705V310.241M1071.21 251.705H1129.74M1071.21 310.241V368.777M1071.21 310.241H1129.74M1071.21 368.777V427.313M1071.21 368.777H1129.74M1071.21 427.313V485.849M1071.21 427.313H1129.74M1071.21 485.849V544.384M1071.21 485.849H1129.74M1071.21 544.384V602.92M1071.21 544.384H1129.74M1071.21 602.92V661.456M1071.21 602.92H1129.74M1071.21 661.456V719.992M1071.21 661.456H1129.74M1071.21 719.992V778.528M1071.21 719.992H1129.74M1071.21 778.528V837.064M1071.21 778.528H1129.74M1071.21 837.064V895.6M1071.21 837.064H1129.74M1071.21 895.6V954.136M1071.21 895.6H1129.74M1071.21 954.136V1012.67M1071.21 954.136H1129.74M1071.21 1012.67V1071.21M1071.21 1012.67H1129.74M1071.21 1071.21V1129.74M1071.21 1071.21H1129.74M1071.21 1129.74V1188.28M1071.21 1129.74H1129.74M1071.21 1188.28H1129.74M1129.74 17.561V76.0969M1129.74 17.561H1188.28M1129.74 76.0969V134.633M1129.74 76.0969H1188.28M1129.74 134.633V193.169M1129.74 134.633H1188.28M1129.74 193.169V251.705M1129.74 193.169H1188.28M1129.74 251.705V310.241M1129.74 251.705H1188.28M1129.74 310.241V368.777M1129.74 310.241H1188.28M1129.74 368.777V427.313M1129.74 368.777H1188.28M1129.74 427.313V485.849M1129.74 427.313H1188.28M1129.74 485.849V544.384M1129.74 485.849H1188.28M1129.74 544.384V602.92M1129.74 544.384H1188.28M1129.74 602.92V661.456M1129.74 602.92H1188.28M1129.74 661.456V719.992M1129.74 661.456H1188.28M1129.74 719.992V778.528M1129.74 719.992H1188.28M1129.74 778.528V837.064M1129.74 778.528H1188.28M1129.74 837.064V895.6M1129.74 837.064H1188.28M1129.74 895.6V954.136M1129.74 895.6H1188.28M1129.74 954.136V1012.67M1129.74 954.136H1188.28M1129.74 1012.67V1071.21M1129.74 1012.67H1188.28M1129.74 1071.21V1129.74M1129.74 1071.21H1188.28M1129.74 1129.74V1188.28M1129.74 1129.74H1188.28M1129.74 1188.28H1188.28M1188.28 17.561V76.0969M1188.28 17.561H1246.82M1188.28 76.0969V134.633M1188.28 76.0969H1246.82M1188.28 134.633V193.169M1188.28 134.633H1246.82M1188.28 193.169V251.705M1188.28 193.169H1246.82M1188.28 251.705V310.241M1188.28 251.705H1246.82M1188.28 310.241V368.777M1188.28 310.241H1246.82M1188.28 368.777V427.313M1188.28 368.777H1246.82M1188.28 427.313V485.849M1188.28 427.313H1246.82M1188.28 485.849V544.384M1188.28 485.849H1246.82M1188.28 544.384V602.92M1188.28 544.384H1246.82M1188.28 602.92V661.456M1188.28 602.92H1246.82M1188.28 661.456V719.992M1188.28 661.456H1246.82M1188.28 719.992V778.528M1188.28 719.992H1246.82M1188.28 778.528V837.064M1188.28 778.528H1246.82M1188.28 837.064V895.6M1188.28 837.064H1246.82M1188.28 895.6V954.136M1188.28 895.6H1246.82M1188.28 954.136V1012.67M1188.28 954.136H1246.82M1188.28 1012.67V1071.21M1188.28 1012.67H1246.82M1188.28 1071.21V1129.74M1188.28 1071.21H1246.82M1188.28 1129.74V1188.28M1188.28 1129.74H1246.82M1188.28 1188.28H1246.82M1246.82 17.561V76.0969M1246.82 17.561H1305.35M1246.82 76.0969V134.633M1246.82 76.0969H1305.35M1246.82 134.633V193.169M1246.82 134.633H1305.35M1246.82 193.169V251.705M1246.82 193.169H1305.35M1246.82 251.705V310.241M1246.82 251.705H1305.35M1246.82 310.241V368.777M1246.82 310.241H1305.35M1246.82 368.777V427.313M1246.82 368.777H1305.35M1246.82 427.313V485.849M1246.82 427.313H1305.35M1246.82 485.849V544.384M1246.82 485.849H1305.35M1246.82 544.384V602.92M1246.82 544.384H1305.35M1246.82 602.92V661.456M1246.82 602.92H1305.35M1246.82 661.456V719.992M1246.82 661.456H1305.35M1246.82 719.992V778.528M1246.82 719.992H1305.35M1246.82 778.528V837.064M1246.82 778.528H1305.35M1246.82 837.064V895.6M1246.82 837.064H1305.35M1246.82 895.6V954.136M1246.82 895.6H1305.35M1246.82 954.136V1012.67M1246.82 954.136H1305.35M1246.82 1012.67V1071.21M1246.82 1012.67H1305.35M1246.82 1071.21V1129.74M1246.82 1071.21H1305.35M1246.82 1129.74V1188.28M1246.82 1129.74H1305.35M1246.82 1188.28H1305.35M1305.35 17.561V76.0969M1305.35 17.561H1363.89M1305.35 76.0969V134.633M1305.35 76.0969H1363.89M1305.35 134.633V193.169M1305.35 134.633H1363.89M1305.35 193.169V251.705M1305.35 193.169H1363.89M1305.35 251.705V310.241M1305.35 251.705H1363.89M1305.35 310.241V368.777M1305.35 310.241H1363.89M1305.35 368.777V427.313M1305.35 368.777H1363.89M1305.35 427.313V485.849M1305.35 427.313H1363.89M1305.35 485.849V544.384M1305.35 485.849H1363.89M1305.35 544.384V602.92M1305.35 544.384H1363.89M1305.35 602.92V661.456M1305.35 602.92H1363.89M1305.35 661.456V719.992M1305.35 661.456H1363.89M1305.35 719.992V778.528M1305.35 719.992H1363.89M1305.35 778.528V837.064M1305.35 778.528H1363.89M1305.35 837.064V895.6M1305.35 837.064H1363.89M1305.35 895.6V954.136M1305.35 895.6H1363.89M1305.35 954.136V1012.67M1305.35 954.136H1363.89M1305.35 1012.67V1071.21M1305.35 1012.67H1363.89M1305.35 1071.21V1129.74M1305.35 1071.21H1363.89M1305.35 1129.74V1188.28M1305.35 1129.74H1363.89M1305.35 1188.28H1363.89M1363.89 17.561V76.0969M1363.89 17.561H1422.42M1363.89 76.0969V134.633M1363.89 76.0969H1422.42M1363.89 134.633V193.169M1363.89 134.633H1422.42M1363.89 193.169V251.705M1363.89 193.169H1422.42M1363.89 251.705V310.241M1363.89 251.705H1422.42M1363.89 310.241V368.777M1363.89 310.241H1422.42M1363.89 368.777V427.313M1363.89 368.777H1422.42M1363.89 427.313V485.849M1363.89 427.313H1422.42M1363.89 485.849V544.384M1363.89 485.849H1422.42M1363.89 544.384V602.92M1363.89 544.384H1422.42M1363.89 602.92V661.456M1363.89 602.92H1422.42M1363.89 661.456V719.992M1363.89 661.456H1422.42M1363.89 719.992V778.528M1363.89 719.992H1422.42M1363.89 778.528V837.064M1363.89 778.528H1422.42M1363.89 837.064V895.6M1363.89 837.064H1422.42M1363.89 895.6V954.136M1363.89 895.6H1422.42M1363.89 954.136V1012.67M1363.89 954.136H1422.42M1363.89 1012.67V1071.21M1363.89 1012.67H1422.42M1363.89 1071.21V1129.74M1363.89 1071.21H1422.42M1363.89 1129.74V1188.28M1363.89 1129.74H1422.42M1363.89 1188.28H1422.42M1422.42 17.561V76.0969M1422.42 17.561H1480.96M1422.42 76.0969V134.633M1422.42 76.0969H1480.96M1422.42 134.633V193.169M1422.42 134.633H1480.96M1422.42 193.169V251.705M1422.42 193.169H1480.96M1422.42 251.705V310.241M1422.42 251.705H1480.96M1422.42 310.241V368.777M1422.42 310.241H1480.96M1422.42 368.777V427.313M1422.42 368.777H1480.96M1422.42 427.313V485.849M1422.42 427.313H1480.96M1422.42 485.849V544.384M1422.42 485.849H1480.96M1422.42 544.384V602.92M1422.42 544.384H1480.96M1422.42 602.92V661.456M1422.42 602.92H1480.96M1422.42 661.456V719.992M1422.42 661.456H1480.96M1422.42 719.992V778.528M1422.42 719.992H1480.96M1422.42 778.528V837.064M1422.42 778.528H1480.96M1422.42 837.064V895.6M1422.42 837.064H1480.96M1422.42 895.6V954.136M1422.42 895.6H1480.96M1422.42 954.136V1012.67M1422.42 954.136H1480.96M1422.42 1012.67V1071.21M1422.42 1012.67H1480.96M1422.42 1071.21V1129.74M1422.42 1071.21H1480.96M1422.42 1129.74V1188.28M1422.42 1129.74H1480.96M1422.42 1188.28H1480.96M1480.96 17.561V76.0969M1480.96 17.561H1539.5M1480.96 76.0969V134.633M1480.96 76.0969H1539.5M1480.96 134.633V193.169M1480.96 134.633H1539.5M1480.96 193.169V251.705M1480.96 193.169H1539.5M1480.96 251.705V310.241M1480.96 251.705H1539.5M1480.96 310.241V368.777M1480.96 310.241H1539.5M1480.96 368.777V427.313M1480.96 368.777H1539.5M1480.96 427.313V485.849M1480.96 427.313H1539.5M1480.96 485.849V544.384M1480.96 485.849H1539.5M1480.96 544.384V602.92M1480.96 544.384H1539.5M1480.96 602.92V661.456M1480.96 602.92H1539.5M1480.96 661.456V719.992M1480.96 661.456H1539.5M1480.96 719.992V778.528M1480.96 719.992H1539.5M1480.96 778.528V837.064M1480.96 778.528H1539.5M1480.96 837.064V895.6M1480.96 837.064H1539.5M1480.96 895.6V954.136M1480.96 895.6H1539.5M1480.96 954.136V1012.67M1480.96 954.136H1539.5M1480.96 1012.67V1071.21M1480.96 1012.67H1539.5M1480.96 1071.21V1129.74M1480.96 1071.21H1539.5M1480.96 1129.74V1188.28M1480.96 1129.74H1539.5M1480.96 1188.28H1539.5M1539.5 17.561V76.0969M1539.5 17.561H1598.03M1539.5 76.0969V134.633M1539.5 76.0969H1598.03M1539.5 134.633V193.169M1539.5 134.633H1598.03M1539.5 193.169V251.705M1539.5 193.169H1598.03M1539.5 251.705V310.241M1539.5 251.705H1598.03M1539.5 310.241V368.777M1539.5 310.241H1598.03M1539.5 368.777V427.313M1539.5 368.777H1598.03M1539.5 427.313V485.849M1539.5 427.313H1598.03M1539.5 485.849V544.384M1539.5 485.849H1598.03M1539.5 544.384V602.92M1539.5 544.384H1598.03M1539.5 602.92V661.456M1539.5 602.92H1598.03M1539.5 661.456V719.992M1539.5 661.456H1598.03M1539.5 719.992V778.528M1539.5 719.992H1598.03M1539.5 778.528V837.064M1539.5 778.528H1598.03M1539.5 837.064V895.6M1539.5 837.064H1598.03M1539.5 895.6V954.136M1539.5 895.6H1598.03M1539.5 954.136V1012.67M1539.5 954.136H1598.03M1539.5 1012.67V1071.21M1539.5 1012.67H1598.03M1539.5 1071.21V1129.74M1539.5 1071.21H1598.03M1539.5 1129.74V1188.28M1539.5 1129.74H1598.03M1539.5 1188.28H1598.03M1598.03 17.561V76.0969M1598.03 17.561H1656.57M1598.03 76.0969V134.633M1598.03 76.0969H1656.57M1598.03 134.633V193.169M1598.03 134.633H1656.57M1598.03 193.169V251.705M1598.03 193.169H1656.57M1598.03 251.705V310.241M1598.03 251.705H1656.57M1598.03 310.241V368.777M1598.03 310.241H1656.57M1598.03 368.777V427.313M1598.03 368.777H1656.57M1598.03 427.313V485.849M1598.03 427.313H1656.57M1598.03 485.849V544.384M1598.03 485.849H1656.57M1598.03 544.384V602.92M1598.03 544.384H1656.57M1598.03 602.92V661.456M1598.03 602.92H1656.57M1598.03 661.456V719.992M1598.03 661.456H1656.57M1598.03 719.992V778.528M1598.03 719.992H1656.57M1598.03 778.528V837.064M1598.03 778.528H1656.57M1598.03 837.064V895.6M1598.03 837.064H1656.57M1598.03 895.6V954.136M1598.03 895.6H1656.57M1598.03 954.136V1012.67M1598.03 954.136H1656.57M1598.03 1012.67V1071.21M1598.03 1012.67H1656.57M1598.03 1071.21V1129.74M1598.03 1071.21H1656.57M1598.03 1129.74V1188.28M1598.03 1129.74H1656.57M1598.03 1188.28H1656.57M1656.57 17.561V76.0969M1656.57 17.561H1715.1M1656.57 76.0969V134.633M1656.57 76.0969H1715.1M1656.57 134.633V193.169M1656.57 134.633H1715.1M1656.57 193.169V251.705M1656.57 193.169H1715.1M1656.57 251.705V310.241M1656.57 251.705H1715.1M1656.57 310.241V368.777M1656.57 310.241H1715.1M1656.57 368.777V427.313M1656.57 368.777H1715.1M1656.57 427.313V485.849M1656.57 427.313H1715.1M1656.57 485.849V544.384M1656.57 485.849H1715.1M1656.57 544.384V602.92M1656.57 544.384H1715.1M1656.57 602.92V661.456M1656.57 602.92H1715.1M1656.57 661.456V719.992M1656.57 661.456H1715.1M1656.57 719.992V778.528M1656.57 719.992H1715.1M1656.57 778.528V837.064M1656.57 778.528H1715.1M1656.57 837.064V895.6M1656.57 837.064H1715.1M1656.57 895.6V954.136M1656.57 895.6H1715.1M1656.57 954.136V1012.67M1656.57 954.136H1715.1M1656.57 1012.67V1071.21M1656.57 1012.67H1715.1M1656.57 1071.21V1129.74M1656.57 1071.21H1715.1M1656.57 1129.74V1188.28M1656.57 1129.74H1715.1M1656.57 1188.28H1715.1M1715.1 17.561V76.0969M1715.1 17.561H1773.64M1715.1 76.0969V134.633M1715.1 76.0969H1773.64M1715.1 134.633V193.169M1715.1 134.633H1773.64M1715.1 193.169V251.705M1715.1 193.169H1773.64M1715.1 251.705V310.241M1715.1 251.705H1773.64M1715.1 310.241V368.777M1715.1 310.241H1773.64M1715.1 368.777V427.313M1715.1 368.777H1773.64M1715.1 427.313V485.849M1715.1 427.313H1773.64M1715.1 485.849V544.384M1715.1 485.849H1773.64M1715.1 544.384V602.92M1715.1 544.384H1773.64M1715.1 602.92V661.456M1715.1 602.92H1773.64M1715.1 661.456V719.992M1715.1 661.456H1773.64M1715.1 719.992V778.528M1715.1 719.992H1773.64M1715.1 778.528V837.064M1715.1 778.528H1773.64M1715.1 837.064V895.6M1715.1 837.064H1773.64M1715.1 895.6V954.136M1715.1 895.6H1773.64M1715.1 954.136V1012.67M1715.1 954.136H1773.64M1715.1 1012.67V1071.21M1715.1 1012.67H1773.64M1715.1 1071.21V1129.74M1715.1 1071.21H1773.64M1715.1 1129.74V1188.28M1715.1 1129.74H1773.64M1715.1 1188.28H1773.64M1773.64 17.561V76.0969M1773.64 17.561H1832.17M1773.64 76.0969V134.633M1773.64 76.0969H1832.17M1773.64 134.633V193.169M1773.64 134.633H1832.17M1773.64 193.169V251.705M1773.64 193.169H1832.17M1773.64 251.705V310.241M1773.64 251.705H1832.17M1773.64 310.241V368.777M1773.64 310.241H1832.17M1773.64 368.777V427.313M1773.64 368.777H1832.17M1773.64 427.313V485.849M1773.64 427.313H1832.17M1773.64 485.849V544.384M1773.64 485.849H1832.17M1773.64 544.384V602.92M1773.64 544.384H1832.17M1773.64 602.92V661.456M1773.64 602.92H1832.17M1773.64 661.456V719.992M1773.64 661.456H1832.17M1773.64 719.992V778.528M1773.64 719.992H1832.17M1773.64 778.528V837.064M1773.64 778.528H1832.17M1773.64 837.064V895.6M1773.64 837.064H1832.17M1773.64 895.6V954.136M1773.64 895.6H1832.17M1773.64 954.136V1012.67M1773.64 954.136H1832.17M1773.64 1012.67V1071.21M1773.64 1012.67H1832.17M1773.64 1071.21V1129.74M1773.64 1071.21H1832.17M1773.64 1129.74V1188.28M1773.64 1129.74H1832.17M1773.64 1188.28H1832.17M1832.17 17.561V76.0969M1832.17 17.561H1890.71M1832.17 76.0969V134.633M1832.17 76.0969H1890.71M1832.17 134.633V193.169M1832.17 134.633H1890.71M1832.17 193.169V251.705M1832.17 193.169H1890.71M1832.17 251.705V310.241M1832.17 251.705H1890.71M1832.17 310.241V368.777M1832.17 310.241H1890.71M1832.17 368.777V427.313M1832.17 368.777H1890.71M1832.17 427.313V485.849M1832.17 427.313H1890.71M1832.17 485.849V544.384M1832.17 485.849H1890.71M1832.17 544.384V602.92M1832.17 544.384H1890.71M1832.17 602.92V661.456M1832.17 602.92H1890.71M1832.17 661.456V719.992M1832.17 661.456H1890.71M1832.17 719.992V778.528M1832.17 719.992H1890.71M1832.17 778.528V837.064M1832.17 778.528H1890.71M1832.17 837.064V895.6M1832.17 837.064H1890.71M1832.17 895.6V954.136M1832.17 895.6H1890.71M1832.17 954.136V1012.67M1832.17 954.136H1890.71M1832.17 1012.67V1071.21M1832.17 1012.67H1890.71M1832.17 1071.21V1129.74M1832.17 1071.21H1890.71M1832.17 1129.74V1188.28M1832.17 1129.74H1890.71M1832.17 1188.28H1890.71M1890.71 17.561V76.0969M1890.71 17.561H1949.25M1890.71 76.0969V134.633M1890.71 76.0969H1949.25M1890.71 134.633V193.169M1890.71 134.633H1949.25M1890.71 193.169V251.705M1890.71 193.169H1949.25M1890.71 251.705V310.241M1890.71 251.705H1949.25M1890.71 310.241V368.777M1890.71 310.241H1949.25M1890.71 368.777V427.313M1890.71 368.777H1949.25M1890.71 427.313V485.849M1890.71 427.313H1949.25M1890.71 485.849V544.384M1890.71 485.849H1949.25M1890.71 544.384V602.92M1890.71 544.384H1949.25M1890.71 602.92V661.456M1890.71 602.92H1949.25M1890.71 661.456V719.992M1890.71 661.456H1949.25M1890.71 719.992V778.528M1890.71 719.992H1949.25M1890.71 778.528V837.064M1890.71 778.528H1949.25M1890.71 837.064V895.6M1890.71 837.064H1949.25M1890.71 895.6V954.136M1890.71 895.6H1949.25M1890.71 954.136V1012.67M1890.71 954.136H1949.25M1890.71 1012.67V1071.21M1890.71 1012.67H1949.25M1890.71 1071.21V1129.74M1890.71 1071.21H1949.25M1890.71 1129.74V1188.28M1890.71 1129.74H1949.25M1890.71 1188.28H1949.25M1949.25 17.561V76.0969M1949.25 17.561H2007.78M1949.25 76.0969V134.633M1949.25 76.0969H2007.78M1949.25 134.633V193.169M1949.25 134.633H2007.78M1949.25 193.169V251.705M1949.25 193.169H2007.78M1949.25 251.705V310.241M1949.25 251.705H2007.78M1949.25 310.241V368.777M1949.25 310.241H2007.78M1949.25 368.777V427.313M1949.25 368.777H2007.78M1949.25 427.313V485.849M1949.25 427.313H2007.78M1949.25 485.849V544.384M1949.25 485.849H2007.78M1949.25 544.384V602.92M1949.25 544.384H2007.78M1949.25 602.92V661.456M1949.25 602.92H2007.78M1949.25 661.456V719.992M1949.25 661.456H2007.78M1949.25 719.992V778.528M1949.25 719.992H2007.78M1949.25 778.528V837.064M1949.25 778.528H2007.78M1949.25 837.064V895.6M1949.25 837.064H2007.78M1949.25 895.6V954.136M1949.25 895.6H2007.78M1949.25 954.136V1012.67M1949.25 954.136H2007.78M1949.25 1012.67V1071.21M1949.25 1012.67H2007.78M1949.25 1071.21V1129.74M1949.25 1071.21H2007.78M1949.25 1129.74V1188.28M1949.25 1129.74H2007.78M1949.25 1188.28H2007.78M2007.78 17.561V76.0969M2007.78 17.561H2066.32M2007.78 76.0969V134.633M2007.78 76.0969H2066.32M2007.78 134.633V193.169M2007.78 134.633H2066.32M2007.78 193.169V251.705M2007.78 193.169H2066.32M2007.78 251.705V310.241M2007.78 251.705H2066.32M2007.78 310.241V368.777M2007.78 310.241H2066.32M2007.78 368.777V427.313M2007.78 368.777H2066.32M2007.78 427.313V485.849M2007.78 427.313H2066.32M2007.78 485.849V544.384M2007.78 485.849H2066.32M2007.78 544.384V602.92M2007.78 544.384H2066.32M2007.78 602.92V661.456M2007.78 602.92H2066.32M2007.78 661.456V719.992M2007.78 661.456H2066.32M2007.78 719.992V778.528M2007.78 719.992H2066.32M2007.78 778.528V837.064M2007.78 778.528H2066.32M2007.78 837.064V895.6M2007.78 837.064H2066.32M2007.78 895.6V954.136M2007.78 895.6H2066.32M2007.78 954.136V1012.67M2007.78 954.136H2066.32M2007.78 1012.67V1071.21M2007.78 1012.67H2066.32M2007.78 1071.21V1129.74M2007.78 1071.21H2066.32M2007.78 1129.74V1188.28M2007.78 1129.74H2066.32M2007.78 1188.28H2066.32M2066.32 17.561V76.0969M2066.32 17.561H2124.85M2066.32 76.0969V134.633M2066.32 76.0969H2124.85M2066.32 134.633V193.169M2066.32 134.633H2124.85M2066.32 193.169V251.705M2066.32 193.169H2124.85M2066.32 251.705V310.241M2066.32 251.705H2124.85M2066.32 310.241V368.777M2066.32 310.241H2124.85M2066.32 368.777V427.313M2066.32 368.777H2124.85M2066.32 427.313V485.849M2066.32 427.313H2124.85M2066.32 485.849V544.384M2066.32 485.849H2124.85M2066.32 544.384V602.92M2066.32 544.384H2124.85M2066.32 602.92V661.456M2066.32 602.92H2124.85M2066.32 661.456V719.992M2066.32 661.456H2124.85M2066.32 719.992V778.528M2066.32 719.992H2124.85M2066.32 778.528V837.064M2066.32 778.528H2124.85M2066.32 837.064V895.6M2066.32 837.064H2124.85M2066.32 895.6V954.136M2066.32 895.6H2124.85M2066.32 954.136V1012.67M2066.32 954.136H2124.85M2066.32 1012.67V1071.21M2066.32 1012.67H2124.85M2066.32 1071.21V1129.74M2066.32 1071.21H2124.85M2066.32 1129.74V1188.28M2066.32 1129.74H2124.85M2066.32 1188.28H2124.85M2124.85 17.561V76.0969M2124.85 17.561H2183.39M2124.85 76.0969V134.633M2124.85 76.0969H2183.39M2124.85 134.633V193.169M2124.85 134.633H2183.39M2124.85 193.169V251.705M2124.85 193.169H2183.39M2124.85 251.705V310.241M2124.85 251.705H2183.39M2124.85 310.241V368.777M2124.85 310.241H2183.39M2124.85 368.777V427.313M2124.85 368.777H2183.39M2124.85 427.313V485.849M2124.85 427.313H2183.39M2124.85 485.849V544.384M2124.85 485.849H2183.39M2124.85 544.384V602.92M2124.85 544.384H2183.39M2124.85 602.92V661.456M2124.85 602.92H2183.39M2124.85 661.456V719.992M2124.85 661.456H2183.39M2124.85 719.992V778.528M2124.85 719.992H2183.39M2124.85 778.528V837.064M2124.85 778.528H2183.39M2124.85 837.064V895.6M2124.85 837.064H2183.39M2124.85 895.6V954.136M2124.85 895.6H2183.39M2124.85 954.136V1012.67M2124.85 954.136H2183.39M2124.85 1012.67V1071.21M2124.85 1012.67H2183.39M2124.85 1071.21V1129.74M2124.85 1071.21H2183.39M2124.85 1129.74V1188.28M2124.85 1129.74H2183.39M2124.85 1188.28H2183.39M2183.39 17.561V76.0969M2183.39 17.561H2241.93M2183.39 76.0969V134.633M2183.39 76.0969H2241.93M2183.39 134.633V193.169M2183.39 134.633H2241.93M2183.39 193.169V251.705M2183.39 193.169H2241.93M2183.39 251.705V310.241M2183.39 251.705H2241.93M2183.39 310.241V368.777M2183.39 310.241H2241.93M2183.39 368.777V427.313M2183.39 368.777H2241.93M2183.39 427.313V485.849M2183.39 427.313H2241.93M2183.39 485.849V544.384M2183.39 485.849H2241.93M2183.39 544.384V602.92M2183.39 544.384H2241.93M2183.39 602.92V661.456M2183.39 602.92H2241.93M2183.39 661.456V719.992M2183.39 661.456H2241.93M2183.39 719.992V778.528M2183.39 719.992H2241.93M2183.39 778.528V837.064M2183.39 778.528H2241.93M2183.39 837.064V895.6M2183.39 837.064H2241.93M2183.39 895.6V954.136M2183.39 895.6H2241.93M2183.39 954.136V1012.67M2183.39 954.136H2241.93M2183.39 1012.67V1071.21M2183.39 1012.67H2241.93M2183.39 1071.21V1129.74M2183.39 1071.21H2241.93M2183.39 1129.74V1188.28M2183.39 1129.74H2241.93M2183.39 1188.28H2241.93M2241.93 17.561V76.0969M2241.93 17.561H2300.46M2241.93 76.0969V134.633M2241.93 76.0969H2300.46M2241.93 134.633V193.169M2241.93 134.633H2300.46M2241.93 193.169V251.705M2241.93 193.169H2300.46M2241.93 251.705V310.241M2241.93 251.705H2300.46M2241.93 310.241V368.777M2241.93 310.241H2300.46M2241.93 368.777V427.313M2241.93 368.777H2300.46M2241.93 427.313V485.849M2241.93 427.313H2300.46M2241.93 485.849V544.384M2241.93 485.849H2300.46M2241.93 544.384V602.92M2241.93 544.384H2300.46M2241.93 602.92V661.456M2241.93 602.92H2300.46M2241.93 661.456V719.992M2241.93 661.456H2300.46M2241.93 719.992V778.528M2241.93 719.992H2300.46M2241.93 778.528V837.064M2241.93 778.528H2300.46M2241.93 837.064V895.6M2241.93 837.064H2300.46M2241.93 895.6V954.136M2241.93 895.6H2300.46M2241.93 954.136V1012.67M2241.93 954.136H2300.46M2241.93 1012.67V1071.21M2241.93 1012.67H2300.46M2241.93 1071.21V1129.74M2241.93 1071.21H2300.46M2241.93 1129.74V1188.28M2241.93 1129.74H2300.46M2241.93 1188.28H2300.46M2300.46 17.561V76.0969M2300.46 17.561H2359M2300.46 76.0969V134.633M2300.46 76.0969H2359M2300.46 134.633V193.169M2300.46 134.633H2359M2300.46 193.169V251.705M2300.46 193.169H2359M2300.46 251.705V310.241M2300.46 251.705H2359M2300.46 310.241V368.777M2300.46 310.241H2359M2300.46 368.777V427.313M2300.46 368.777H2359M2300.46 427.313V485.849M2300.46 427.313H2359M2300.46 485.849V544.384M2300.46 485.849H2359M2300.46 544.384V602.92M2300.46 544.384H2359M2300.46 602.92V661.456M2300.46 602.92H2359M2300.46 661.456V719.992M2300.46 661.456H2359M2300.46 719.992V778.528M2300.46 719.992H2359M2300.46 778.528V837.064M2300.46 778.528H2359M2300.46 837.064V895.6M2300.46 837.064H2359M2300.46 895.6V954.136M2300.46 895.6H2359M2300.46 954.136V1012.67M2300.46 954.136H2359M2300.46 1012.67V1071.21M2300.46 1012.67H2359M2300.46 1071.21V1129.74M2300.46 1071.21H2359M2300.46 1129.74V1188.28M2300.46 1129.74H2359M2300.46 1188.28H2359M2359 17.561V76.0969M2359 17.561H2417.53M2359 76.0969V134.633M2359 76.0969H2417.53M2359 134.633V193.169M2359 134.633H2417.53M2359 193.169V251.705M2359 193.169H2417.53M2359 251.705V310.241M2359 251.705H2417.53M2359 310.241V368.777M2359 310.241H2417.53M2359 368.777V427.313M2359 368.777H2417.53M2359 427.313V485.849M2359 427.313H2417.53M2359 485.849V544.384M2359 485.849H2417.53M2359 544.384V602.92M2359 544.384H2417.53M2359 602.92V661.456M2359 602.92H2417.53M2359 661.456V719.992M2359 661.456H2417.53M2359 719.992V778.528M2359 719.992H2417.53M2359 778.528V837.064M2359 778.528H2417.53M2359 837.064V895.6M2359 837.064H2417.53M2359 895.6V954.136M2359 895.6H2417.53M2359 954.136V1012.67M2359 954.136H2417.53M2359 1012.67V1071.21M2359 1012.67H2417.53M2359 1071.21V1129.74M2359 1071.21H2417.53M2359 1129.74V1188.28M2359 1129.74H2417.53M2359 1188.28H2417.53M2417.53 17.561V76.0969M2417.53 17.561H2476.07M2417.53 76.0969V134.633M2417.53 76.0969H2476.07M2417.53 134.633V193.169M2417.53 134.633H2476.07M2417.53 193.169V251.705M2417.53 193.169H2476.07M2417.53 251.705V310.241M2417.53 251.705H2476.07M2417.53 310.241V368.777M2417.53 310.241H2476.07M2417.53 368.777V427.313M2417.53 368.777H2476.07M2417.53 427.313V485.849M2417.53 427.313H2476.07M2417.53 485.849V544.384M2417.53 485.849H2476.07M2417.53 544.384V602.92M2417.53 544.384H2476.07M2417.53 602.92V661.456M2417.53 602.92H2476.07M2417.53 661.456V719.992M2417.53 661.456H2476.07M2417.53 719.992V778.528M2417.53 719.992H2476.07M2417.53 778.528V837.064M2417.53 778.528H2476.07M2417.53 837.064V895.6M2417.53 837.064H2476.07M2417.53 895.6V954.136M2417.53 895.6H2476.07M2417.53 954.136V1012.67M2417.53 954.136H2476.07M2417.53 1012.67V1071.21M2417.53 1012.67H2476.07M2417.53 1071.21V1129.74M2417.53 1071.21H2476.07M2417.53 1129.74V1188.28M2417.53 1129.74H2476.07M2417.53 1188.28H2476.07M2476.07 17.561V76.0969M2476.07 17.561H2534.61M2476.07 76.0969V134.633M2476.07 76.0969H2534.61M2476.07 134.633V193.169M2476.07 134.633H2534.61M2476.07 193.169V251.705M2476.07 193.169H2534.61M2476.07 251.705V310.241M2476.07 251.705H2534.61M2476.07 310.241V368.777M2476.07 310.241H2534.61M2476.07 368.777V427.313M2476.07 368.777H2534.61M2476.07 427.313V485.849M2476.07 427.313H2534.61M2476.07 485.849V544.384M2476.07 485.849H2534.61M2476.07 544.384V602.92M2476.07 544.384H2534.61M2476.07 602.92V661.456M2476.07 602.92H2534.61M2476.07 661.456V719.992M2476.07 661.456H2534.61M2476.07 719.992V778.528M2476.07 719.992H2534.61M2476.07 778.528V837.064M2476.07 778.528H2534.61M2476.07 837.064V895.6M2476.07 837.064H2534.61M2476.07 895.6V954.136M2476.07 895.6H2534.61M2476.07 954.136V1012.67M2476.07 954.136H2534.61M2476.07 1012.67V1071.21M2476.07 1012.67H2534.61M2476.07 1071.21V1129.74M2476.07 1071.21H2534.61M2476.07 1129.74V1188.28M2476.07 1129.74H2534.61M2476.07 1188.28H2534.61M2534.61 17.561V76.0969M2534.61 17.561H2593.14V76.0969M2534.61 76.0969V134.633M2534.61 76.0969H2593.14M2534.61 134.633V193.169M2534.61 134.633H2593.14M2534.61 193.169V251.705M2534.61 193.169H2593.14M2534.61 251.705V310.241M2534.61 251.705H2593.14M2534.61 310.241V368.777M2534.61 310.241H2593.14M2534.61 368.777V427.313M2534.61 368.777H2593.14M2534.61 427.313V485.849M2534.61 427.313H2593.14M2534.61 485.849V544.384M2534.61 485.849H2593.14M2534.61 544.384V602.92M2534.61 544.384H2593.14M2534.61 602.92V661.456M2534.61 602.92H2593.14M2534.61 661.456V719.992M2534.61 661.456H2593.14M2534.61 719.992V778.528M2534.61 719.992H2593.14M2534.61 778.528V837.064M2534.61 778.528H2593.14M2534.61 837.064V895.6M2534.61 837.064H2593.14M2534.61 895.6V954.136M2534.61 895.6H2593.14M2534.61 954.136V1012.67M2534.61 954.136H2593.14M2534.61 1012.67V1071.21M2534.61 1012.67H2593.14M2534.61 1071.21V1129.74M2534.61 1071.21H2593.14M2534.61 1129.74V1188.28M2534.61 1129.74H2593.14M2534.61 1188.28H2593.14V1129.74M2593.14 76.0969V134.633M2593.14 134.633V193.169M2593.14 193.169V251.705M2593.14 251.705V310.241M2593.14 310.241V368.777M2593.14 368.777V427.313M2593.14 427.313V485.849M2593.14 485.849V544.384M2593.14 544.384V602.92M2593.14 602.92V661.456M2593.14 661.456V719.992M2593.14 719.992V778.528M2593.14 778.528V837.064M2593.14 837.064V895.6M2593.14 895.6V954.136M2593.14 954.136V1012.67M2593.14 1012.67V1071.21M2593.14 1071.21V1129.74" stroke="url(#paint0_radial_1843_46128)" stroke-width="0.731699"/>
</g>
<g style="mix-blend-mode:soft-light" opacity="0.8">
<path d="M251.705 234.144V251.705M251.705 251.705V269.265M251.705 251.705H234.144M251.705 251.705H269.265M251.705 702.431V719.992M251.705 719.992V737.553M251.705 719.992H234.144M251.705 719.992H269.265M251.705 1170.72V1188.28M251.705 1188.28V1205.84M251.705 1188.28H234.144M251.705 1188.28H269.265M719.992 234.144V251.705M719.992 251.705V269.265M719.992 251.705H702.432M719.992 251.705H737.553M719.992 702.431V719.992M719.992 719.992V737.553M719.992 719.992H702.432M719.992 719.992H737.553M719.992 1170.72V1188.28M719.992 1188.28V1205.84M719.992 1188.28H702.432M719.992 1188.28H737.553M1188.28 234.144V251.705M1188.28 251.705V269.265M1188.28 251.705H1170.72M1188.28 251.705H1205.84M1188.28 702.431V719.992M1188.28 719.992V737.553M1188.28 719.992H1170.72M1188.28 719.992H1205.84M1188.28 1170.72V1188.28M1188.28 1188.28V1205.84M1188.28 1188.28H1170.72M1188.28 1188.28H1205.84M1656.57 234.144V251.705M1656.57 251.705V269.265M1656.57 251.705H1639.01M1656.57 251.705H1674.13M1656.57 702.431V719.992M1656.57 719.992V737.553M1656.57 719.992H1639.01M1656.57 719.992H1674.13M1656.57 1170.72V1188.28M1656.57 1188.28V1205.84M1656.57 1188.28H1639.01M1656.57 1188.28H1674.13M2124.86 234.144V251.705M2124.86 251.705V269.265M2124.86 251.705H2107.29M2124.86 251.705H2142.42M2124.86 702.431V719.992M2124.86 719.992V737.553M2124.86 719.992H2107.29M2124.86 719.992H2142.42M2124.86 1170.72V1188.28M2124.86 1188.28V1205.84M2124.86 1188.28H2107.29M2124.86 1188.28H2142.42M2593.14 234.144V251.705M2593.14 251.705V269.265M2593.14 251.705H2575.58M2593.14 251.705H2610.7M2593.14 702.431V719.992M2593.14 719.992V737.553M2593.14 719.992H2575.58M2593.14 719.992H2610.7M2593.14 1170.72V1188.28M2593.14 1188.28V1205.84M2593.14 1188.28H2575.58M2593.14 1188.28H2610.7M251.705 0.000183105V17.561M251.705 17.561V35.1218M251.705 17.561H234.144M251.705 17.561H269.265M251.705 468.288V485.849M251.705 485.849V503.409M251.705 485.849H234.144M251.705 485.849H269.265M251.705 936.575V954.136M251.705 954.136V971.697M251.705 954.136H234.144M251.705 954.136H269.265M719.992 0.000183105V17.561M719.992 17.561V35.1218M719.992 17.561H702.432M719.992 17.561H737.553M719.992 468.288V485.849M719.992 485.849V503.409M719.992 485.849H702.432M719.992 485.849H737.553M719.992 936.575V954.136M719.992 954.136V971.697M719.992 954.136H702.432M719.992 954.136H737.553M1188.28 0.000183105V17.561M1188.28 17.561V35.1218M1188.28 17.561H1170.72M1188.28 17.561H1205.84M1188.28 468.288V485.849M1188.28 485.849V503.409M1188.28 485.849H1170.72M1188.28 485.849H1205.84M1188.28 936.575V954.136M1188.28 954.136V971.697M1188.28 954.136H1170.72M1188.28 954.136H1205.84M1656.57 0.000183105V17.561M1656.57 17.561V35.1218M1656.57 17.561H1639.01M1656.57 17.561H1674.13M1656.57 468.288V485.849M1656.57 485.849V503.409M1656.57 485.849H1639.01M1656.57 485.849H1674.13M1656.57 936.575V954.136M1656.57 954.136V971.697M1656.57 954.136H1639.01M1656.57 954.136H1674.13M2124.86 0.000183105V17.561M2124.86 17.561V35.1218M2124.86 17.561H2107.29M2124.86 17.561H2142.42M2124.86 468.288V485.849M2124.86 485.849V503.409M2124.86 485.849H2107.29M2124.86 485.849H2142.42M2124.86 936.575V954.136M2124.86 954.136V971.697M2124.86 954.136H2107.29M2124.86 954.136H2142.42M2593.14 0.000183105V17.561M2593.14 17.561V35.1218M2593.14 17.561H2575.58M2593.14 17.561H2610.7M2593.14 468.288V485.849M2593.14 485.849V503.409M2593.14 485.849H2575.58M2593.14 485.849H2610.7M2593.14 936.575V954.136M2593.14 954.136V971.697M2593.14 954.136H2575.58M2593.14 954.136H2610.7M17.5608 234.144V251.705M17.5608 251.705V269.265M17.5608 251.705H0M17.5608 251.705H35.1216M17.5608 702.431V719.992M17.5608 719.992V737.553M17.5608 719.992H0M17.5608 719.992H35.1216M17.5608 1170.72V1188.28M17.5608 1188.28V1205.84M17.5608 1188.28H0M17.5608 1188.28H35.1216M485.848 234.144V251.705M485.848 251.705V269.265M485.848 251.705H468.288M485.848 251.705H503.409M485.848 702.431V719.992M485.848 719.992V737.553M485.848 719.992H468.288M485.848 719.992H503.409M485.848 1170.72V1188.28M485.848 1188.28V1205.84M485.848 1188.28H468.288M485.848 1188.28H503.409M954.136 234.144V251.705M954.136 251.705V269.265M954.136 251.705H936.575M954.136 251.705H971.697M954.136 702.431V719.992M954.136 719.992V737.553M954.136 719.992H936.575M954.136 719.992H971.697M954.136 1170.72V1188.28M954.136 1188.28V1205.84M954.136 1188.28H936.575M954.136 1188.28H971.697M1422.42 234.144V251.705M1422.42 251.705V269.265M1422.42 251.705H1404.86M1422.42 251.705H1439.98M1422.42 702.431V719.992M1422.42 719.992V737.553M1422.42 719.992H1404.86M1422.42 719.992H1439.98M1422.42 1170.72V1188.28M1422.42 1188.28V1205.84M1422.42 1188.28H1404.86M1422.42 1188.28H1439.98M1890.71 234.144V251.705M1890.71 251.705V269.265M1890.71 251.705H1873.15M1890.71 251.705H1908.27M1890.71 702.431V719.992M1890.71 719.992V737.553M1890.71 719.992H1873.15M1890.71 719.992H1908.27M1890.71 1170.72V1188.28M1890.71 1188.28V1205.84M1890.71 1188.28H1873.15M1890.71 1188.28H1908.27M2359 234.144V251.705M2359 251.705V269.265M2359 251.705H2341.44M2359 251.705H2376.56M2359 702.431V719.992M2359 719.992V737.553M2359 719.992H2341.44M2359 719.992H2376.56M2359 1170.72V1188.28M2359 1188.28V1205.84M2359 1188.28H2341.44M2359 1188.28H2376.56M17.5608 0.000269434V17.5611M17.5608 17.5611V35.1218M17.5608 17.5611H0M17.5608 17.5611H35.1216M17.5608 468.288V485.849M17.5608 485.849V503.409M17.5608 485.849H0M17.5608 485.849H35.1216M17.5608 936.575V954.136M17.5608 954.136V971.697M17.5608 954.136H0M17.5608 954.136H35.1216M485.848 0.000183105V17.561M485.848 17.561V35.1218M485.848 17.561H468.288M485.848 17.561H503.409M485.848 468.288V485.849M485.848 485.849V503.409M485.848 485.849H468.288M485.848 485.849H503.409M485.848 936.575V954.136M485.848 954.136V971.697M485.848 954.136H468.288M485.848 954.136H503.409M954.136 0.000183105V17.561M954.136 17.561V35.1218M954.136 17.561H936.575M954.136 17.561H971.697M954.136 468.288V485.849M954.136 485.849V503.409M954.136 485.849H936.575M954.136 485.849H971.697M954.136 936.575V954.136M954.136 954.136V971.697M954.136 954.136H936.575M954.136 954.136H971.697M1422.42 0.000183105V17.561M1422.42 17.561V35.1218M1422.42 17.561H1404.86M1422.42 17.561H1439.98M1422.42 468.288V485.849M1422.42 485.849V503.409M1422.42 485.849H1404.86M1422.42 485.849H1439.98M1422.42 936.575V954.136M1422.42 954.136V971.697M1422.42 954.136H1404.86M1422.42 954.136H1439.98M1890.71 0.000183105V17.561M1890.71 17.561V35.1218M1890.71 17.561H1873.15M1890.71 17.561H1908.27M1890.71 468.288V485.849M1890.71 485.849V503.409M1890.71 485.849H1873.15M1890.71 485.849H1908.27M1890.71 936.575V954.136M1890.71 954.136V971.697M1890.71 954.136H1873.15M1890.71 954.136H1908.27M2359 0.000183105V17.561M2359 17.561V35.1218M2359 17.561H2341.44M2359 17.561H2376.56M2359 468.288V485.849M2359 485.849V503.409M2359 485.849H2341.44M2359 485.849H2376.56M2359 936.575V954.136M2359 954.136V971.697M2359 954.136H2341.44M2359 954.136H2376.56" stroke="url(#paint1_radial_1843_46128)" stroke-width="1.4634"/>
</g>
</g>
<defs>
<radialGradient id="paint0_radial_1843_46128" cx="0" cy="0" r="1" gradientUnits="userSpaceOnUse" gradientTransform="translate(1305.35 602.92) rotate(90) scale(585.359 1039.91)">
<stop offset="0.665789" stop-color="#D0D5DD"/>
<stop offset="1" stop-color="#D0D5DD" stop-opacity="0.2"/>
</radialGradient>
<radialGradient id="paint1_radial_1843_46128" cx="0" cy="0" r="1" gradientUnits="userSpaceOnUse" gradientTransform="translate(1305.35 602.92) rotate(90) scale(602.92 1054.09)">
<stop offset="0.665789" stop-color="#98A2B3"/>
<stop offset="1" stop-color="#98A2B3" stop-opacity="0.2"/>
</radialGradient>
</defs>
</svg>
